<?xml version="1.0" encoding="UTF-8"?>
<svg xmlns="http://www.w3.org/2000/svg" width="22" height="20" viewBox="0 0 22 20" fill="none">
  <path d="M11.05 0C5.27504 0 0.550049 4.50803 0.550049 10.0602C0.550049 15.6124 4.39304 19.247 9.41204 20V12.9719H6.74504V10.0602H9.41204V7.84137C9.41204 5.32129 10.9765 3.93574 13.381 3.93574C15.7855 3.93574 15.7225 4.12651 15.7225 4.12651V6.60643H14.3995C13.0975 6.60643 12.688 7.37952 12.688 8.17269V10.0602H15.607L15.1345 12.9719H12.688V20C15.1608 19.626 17.4157 18.4187 19.0405 16.5964C20.6654 14.7741 21.5553 12.4548 21.55 10.0602C21.5474 4.50803 16.825 0 11.05 0Z" fill="currentColor"></path>
</svg>
