<?xml version="1.0" encoding="UTF-8"?>
<svg xmlns="http://www.w3.org/2000/svg" width="22" height="20" viewBox="0 0 22 20" fill="none">
  <path fill-rule="evenodd" clip-rule="evenodd" d="M11.3501 15.455C14.5132 15.455 17.0778 13.0125 17.0778 10C17.0778 6.9875 14.5132 4.545 11.3501 4.545C8.18694 4.545 5.62231 6.9875 5.62231 10C5.62231 13.0125 8.18694 15.455 11.3501 15.455ZM11.3501 13.6375C13.4579 13.6375 15.1694 12.01 15.1694 10C15.1694 7.99 13.4606 6.3625 11.3501 6.3625C9.23956 6.3625 7.53069 7.99 7.53069 10C7.53069 12.01 9.23956 13.6375 11.3501 13.6375Z" fill="currentColor"></path>
  <path d="M17.0778 3.6375C16.5502 3.6375 16.1223 4.045 16.1223 4.5475C16.1223 5.05 16.5502 5.4575 17.0778 5.4575C17.6054 5.4575 18.0333 5.05 18.0333 4.5475C18.0333 4.045 17.6054 3.6375 17.0778 3.6375Z" fill="currentColor"></path>
  <path fill-rule="evenodd" clip-rule="evenodd" d="M1.47473 2.9775C0.849976 4.145 0.849976 5.6725 0.849976 8.7275V11.2725C0.849976 14.3275 0.849976 15.855 1.47473 17.0225C2.02335 18.05 2.9001 18.8825 3.97635 19.405C5.20223 20 6.8061 20 10.0139 20H12.6861C15.8939 20 17.4977 20 18.7236 19.405C19.8025 18.8825 20.6766 18.0475 21.2252 17.0225C21.85 15.855 21.85 14.3275 21.85 11.2725V8.7275C21.85 5.6725 21.85 4.145 21.2252 2.9775C20.6766 1.95 19.7999 1.1175 18.7236 0.595C17.4977 0 15.8939 0 12.6861 0H10.0139C6.8061 0 5.20223 0 3.97635 0.595C2.89748 1.1175 2.02335 1.9525 1.47473 2.9775ZM12.6861 1.8175H10.0139C8.37848 1.8175 7.2681 1.8175 6.4071 1.885C5.56973 1.95 5.14185 2.0675 4.8426 2.2125C4.12335 2.56 3.5406 3.1175 3.1731 3.8025C3.02085 4.0875 2.89748 4.495 2.82923 5.2925C2.75835 6.11 2.75835 7.17 2.75835 8.7275V11.2725C2.75835 12.83 2.75835 13.8875 2.82923 14.7075C2.89748 15.505 3.02085 15.9125 3.1731 16.1975C3.53798 16.8825 4.12335 17.4375 4.8426 17.7875C5.14185 17.9325 5.56973 18.05 6.4071 18.115C7.26548 18.1825 8.37848 18.1825 10.0139 18.1825H12.6861C14.3215 18.1825 15.4318 18.1825 16.2928 18.115C17.1302 18.05 17.5581 17.9325 17.8574 17.7875C18.5766 17.44 19.1593 16.8825 19.5268 16.1975C19.6791 15.9125 19.8025 15.505 19.8707 14.7075C19.9416 13.89 19.9416 12.83 19.9416 11.2725V8.7275C19.9416 7.17 19.9416 6.1125 19.8707 5.2925C19.8025 4.495 19.6791 4.0875 19.5268 3.8025C19.162 3.1175 18.5766 2.5625 17.8574 2.2125C17.5581 2.0675 17.1302 1.95 16.2928 1.885C15.4345 1.8175 14.3215 1.8175 12.6861 1.8175Z" fill="currentColor"></path>
</svg>
