<?xml version="1.0" encoding="UTF-8"?>
<svg xmlns="http://www.w3.org/2000/svg" width="16" height="15" viewBox="0 0 16 15" fill="none">
  <path d="M6.09479 1.23301L6.73273 2.32255C7.30964 3.30708 7.0773 4.59728 6.16961 5.46179C6.16961 5.46179 5.06896 6.51008 7.06549 8.4135C9.06201 10.315 10.1627 9.26676 10.1646 9.26676C11.0723 8.40225 12.4289 8.18096 13.4607 8.73042L14.6046 9.33802C16.164 10.1669 16.3491 12.2503 14.9768 13.5574C14.1537 14.3413 13.1437 14.9526 12.0273 14.9939C10.1489 15.0614 6.95916 14.6095 3.75764 11.5602C0.562016 8.51477 0.0855277 5.47679 0.15641 3.68776C0.197758 2.62447 0.839639 1.66432 1.66463 0.878576C3.03503 -0.426627 5.22451 -0.252225 6.09479 1.23301Z" fill="currentColor"></path>
</svg>
