<svg xmlns="http://www.w3.org/2000/svg" version="1.1" xmlns:xlink="http://www.w3.org/1999/xlink" width="1000" height="1000"><g clip-path="url(#SvgjsClipPath1042)"><rect width="1000" height="1000" fill="#242449"></rect><g transform="matrix(9.090909090909092,0,0,9.090909090909092,149.99999999999994,200)"><svg xmlns="http://www.w3.org/2000/svg" version="1.1" xmlns:xlink="http://www.w3.org/1999/xlink" width="77" height="66"><svg width="77" height="66" viewBox="0 0 77 66" fill="none" xmlns="http://www.w3.org/2000/svg">
<path d="M27.2513 22.3108L28.9798 27.3012C29.1593 27.8163 29.7017 28.105 30.2284 27.9684H30.2518C30.7903 27.8202 31.1258 27.2817 31.0127 26.7355L25.8389 2.13068C25.6828 1.39324 24.9571 0.928928 24.2235 1.10841C24.204 1.11231 24.1845 1.11621 24.1611 1.12402C23.4549 1.2957 23.0335 2.01753 23.2247 2.71595L27.9927 20.0048C28.0941 20.3755 27.9849 20.7696 27.7078 21.0349L27.5167 21.2183C27.224 21.4992 27.1187 21.9284 27.2513 22.3147V22.3108Z" fill="url(#paint0_linear_2_600)"></path>
<path d="M33.6815 1.31521L33.7712 16.1811C33.7712 16.5361 33.5839 16.8678 33.2718 17.0395L32.7606 17.3243C32.4368 17.5077 32.2456 17.855 32.2612 18.2295L32.7021 26.5053C32.7372 27.2037 33.1313 27.5041 33.8726 27.4885H33.9078C34.6062 27.469 34.9613 27.0671 34.9925 26.5404L36.4205 1.36593C36.4634 0.636293 35.8899 0.0198082 35.1602 0.000299202C35.1134 0.000299202 35.0627 0.000299202 35.0159 0.000299202C34.2784 -0.015308 33.6698 0.581668 33.6737 1.32301L33.6815 1.31521Z" fill="url(#paint1_linear_2_600)"></path>
<path d="M40.5721 14.2341L40.1936 14.3316C39.7371 14.4526 39.3859 14.8193 39.2923 15.2837L36.9824 26.8408C36.8849 27.3324 37.1892 27.8123 37.673 27.9372C38.1491 28.0582 38.6329 27.7928 38.7889 27.3285L46.8423 3.41827C47.1349 2.56377 46.7369 1.91217 46.0658 1.71318L45.9956 1.69367C45.1489 1.44005 44.2632 1.94729 44.0525 2.80568L41.4617 13.3367C41.3524 13.7776 41.013 14.1209 40.5721 14.238V14.2341Z" fill="url(#paint2_linear_2_600)"></path>
<path d="M49.5774 13.5161L48.5629 13.4615C48.0947 13.4381 47.6538 13.6956 47.447 14.117L40.7047 27.785C40.4277 28.3469 40.6423 29.0297 41.1924 29.3341C41.7309 29.6306 42.4098 29.4628 42.7453 28.9478L56.4055 7.98338C56.8113 7.3591 56.6358 6.5085 55.9998 6.12223C55.9802 6.11052 55.9607 6.09881 55.9412 6.08711C55.313 5.70863 54.4976 5.94274 54.1425 6.58264L50.6738 12.9036C50.4553 13.2976 50.03 13.5357 49.5813 13.5122L49.5774 13.5161Z" fill="url(#paint3_linear_2_600)"></path>
<path d="M56.6826 15.748L44.2359 30.0637C43.8379 30.5202 43.8691 31.2108 44.3061 31.6322C44.7392 32.0497 45.422 32.0575 45.8668 31.6556L64.4433 14.8271C65.0013 14.3238 65.0286 13.4654 64.5058 12.927C64.494 12.9153 64.4823 12.9036 64.4706 12.8918C63.9517 12.3612 63.1089 12.3651 62.5939 12.8957L60.0733 15.5022C59.7534 15.8338 59.2656 15.9392 58.8364 15.7714L57.9624 15.428C57.5137 15.2524 56.9987 15.3773 56.6826 15.7441V15.748Z" fill="url(#paint4_linear_2_600)"></path>
<path d="M67.557 21.5226L66.9873 20.9998C66.644 20.6838 66.1328 20.6447 65.7466 20.8984L46.9945 33.232C46.538 33.5324 46.4053 34.1411 46.6902 34.6054C46.6902 34.6093 46.698 34.6171 46.7019 34.621C46.975 35.0697 47.5486 35.2336 48.0207 34.9956L70.7955 23.4853C71.3027 23.2277 71.5056 22.6035 71.2364 22.104C71.1389 21.9284 71.0413 21.749 70.9438 21.5734C70.6706 21.0896 70.0503 20.9218 69.5664 21.1949L68.7393 21.6592C68.3569 21.8738 67.8808 21.8153 67.5609 21.5187L67.557 21.5226Z" fill="url(#paint5_linear_2_600)"></path>
<path d="M73.4057 29.4316C73.2574 28.9673 72.6644 28.7683 72.1884 28.9322L48.9024 36.9231C48.3952 37.0987 48.1142 37.641 48.2625 38.1561C48.4069 38.6594 48.918 38.9676 49.433 38.8584L74.545 33.5987C75.0328 33.4973 75.3371 33.0096 75.2162 32.5257C75.0952 32.0419 74.9742 31.5425 74.8806 31.2264C74.7284 30.6919 74.6777 30.4968 74.2524 30.6256C74.1588 30.6568 74.2251 30.6334 74.2251 30.6334C73.8154 30.7738 73.6944 30.3368 73.6944 30.3368L73.3979 29.4277L73.4057 29.4316Z" fill="url(#paint6_linear_2_600)"></path>
<path d="M74.0612 39.1978L49.9013 40.8756C49.316 40.9146 48.8595 41.4024 48.8556 41.9876C48.8556 42.5846 49.3199 43.084 49.9169 43.1153L74.1861 44.4224C75.3761 44.4848 76.3789 43.5366 76.3789 42.3427C76.3789 41.9954 76.375 41.6521 76.3633 41.3087C76.3282 40.0757 75.2903 39.1081 74.0573 39.1939L74.0612 39.1978Z" fill="url(#paint7_linear_2_600)"></path>
<path d="M51.8756 48.2071C51.8756 48.2071 51.8756 48.1954 51.8795 48.1876C52.0044 47.7896 51.7625 47.3721 51.3606 47.2628L37.2907 43.482C37.2907 43.482 37.2673 43.6381 37.3219 43.3025C37.3765 42.967 37.0332 42.9357 37.0332 42.9357C37.0332 42.9357 36.6976 42.8616 36.5922 43.2089C36.5142 43.4703 36.4674 43.6186 36.4674 43.6264C36.4011 43.8839 36.5025 44.036 36.7015 44.1024L50.947 48.6792C51.3333 48.8041 51.7586 48.5934 51.8795 48.2032L51.8756 48.2071Z" fill="url(#paint8_linear_2_600)"></path>
<path d="M36.8185 45.3549C36.7795 45.191 36.4985 45.0622 36.4985 45.0622C36.2176 44.914 35.9094 44.9959 35.7494 45.269C35.7494 45.269 35.7455 45.2768 35.7416 45.2807C35.5777 45.5578 35.6441 45.9089 35.9133 46.0884L48.3483 54.3017C48.6214 54.4812 48.9921 54.4071 49.1638 54.13C49.2184 54.0403 49.277 53.9505 49.3316 53.8647C49.5033 53.5877 49.4057 53.2209 49.1248 53.057L36.7717 45.7763C36.7717 45.7763 36.8614 45.5617 36.8146 45.3588L36.8185 45.3549Z" fill="url(#paint9_linear_2_600)"></path>
<path d="M35.8196 48.0783C35.925 47.8598 35.8821 47.6023 35.7065 47.4345L35.2617 47.0014C35.0041 46.7478 34.5984 46.7673 34.3408 47.0209C34.3369 47.0248 34.333 47.0287 34.3252 47.0326C34.0716 47.2824 34.0443 47.6764 34.2823 47.9379L44.1656 58.9331C44.4036 59.1985 44.8172 59.2219 45.0786 58.98C45.1332 58.9292 45.1918 58.8785 45.2464 58.8239C45.5117 58.5742 45.5117 58.1528 45.2503 57.8992L35.6362 48.4412L35.8157 48.0705L35.8196 48.0783Z" fill="url(#paint10_linear_2_600)"></path>
<path d="M34.2707 50.6652C34.4151 50.4779 34.4229 50.2243 34.2941 50.0253L33.3733 48.6129C33.1821 48.3202 32.8036 48.2461 32.4993 48.4178C32.4954 48.4178 32.4876 48.4217 32.4837 48.4256C32.1754 48.6012 32.0428 48.9757 32.2066 49.2918L38.9021 62.2692C39.1128 62.6789 39.6201 62.835 40.0259 62.6164C40.4394 62.3901 40.5838 61.8751 40.3419 61.4693L34.06 50.954C34.06 50.954 34.06 50.9462 34.06 50.9423L34.2746 50.6652H34.2707Z" fill="url(#paint11_linear_2_600)"></path>
<path d="M32.1871 52.5654L31.1687 49.6195C31.0672 49.323 30.7512 49.1669 30.4469 49.2489C30.443 49.2489 30.4391 49.2489 30.4352 49.2489C30.123 49.3308 29.9201 49.6273 29.9865 49.9434L33.0103 64.3293C33.1001 64.7585 33.5254 65.0395 33.9507 64.9341C33.9546 64.9341 33.9624 64.9341 33.9663 64.9341C34.3955 64.8327 34.6452 64.3879 34.5281 63.9626L31.7501 53.8881C31.6915 53.6813 31.7501 53.455 31.91 53.3067L32.0388 53.1819C32.2027 53.0219 32.2612 52.78 32.1871 52.5654Z" fill="url(#paint12_linear_2_600)"></path>
<path d="M28.4179 64.7663L28.3672 56.0263C28.3672 55.8741 28.4491 55.7337 28.5818 55.6595L29.0422 55.402C29.1788 55.324 29.2607 55.1757 29.2529 55.0157L29.0032 50.1658C28.9837 49.7912 28.6754 49.4986 28.3009 49.5025C28.297 49.5025 28.2892 49.5025 28.2853 49.5025C27.9458 49.5025 27.6688 49.7678 27.6493 50.1073L26.8182 64.7234C26.7909 65.176 27.1459 65.5584 27.6024 65.5701C28.0512 65.5818 28.4218 65.2151 28.4179 64.7663Z" fill="url(#paint13_linear_2_600)"></path>
<path d="M25.2146 56.3151L26.5022 49.881C26.5568 49.6 26.3773 49.3347 26.1003 49.2645C26.1003 49.2645 26.0925 49.2645 26.0886 49.2645C25.8155 49.1943 25.5345 49.3347 25.4448 49.604L20.7821 63.4554C20.6417 63.8689 20.8485 64.3216 21.2543 64.4815C21.2582 64.4815 21.266 64.4854 21.2699 64.4893C21.7342 64.6688 22.2531 64.4074 22.3741 63.9236L23.9075 57.6885C23.9543 57.5012 24.0987 57.3529 24.286 57.3061C24.7581 57.1852 25.1171 56.8028 25.2146 56.3229V56.3151Z" fill="url(#paint14_linear_2_600)"></path>
<path d="M20.5207 57.0642L24.3367 49.323C24.4967 49.0031 24.3601 48.6246 24.0441 48.449C24.0402 48.449 24.0363 48.4451 24.0324 48.4412C23.7241 48.2695 23.3417 48.3476 23.1466 48.6441L15.3196 60.6538C15.1206 60.9582 15.2065 61.3679 15.5108 61.5591C15.5771 61.602 15.6474 61.6449 15.7137 61.6878C16.0298 61.8868 16.4472 61.7698 16.6267 61.4459L18.3552 58.2933C18.5659 57.907 18.9834 57.6768 19.4243 57.7002C19.8847 57.7236 20.31 57.4739 20.5168 57.0603L20.5207 57.0642Z" fill="url(#paint15_linear_2_600)"></path>
<path d="M15.1753 56.1707L22.2805 48.0003C22.5068 47.7389 22.4755 47.3526 22.2258 47.1107C22.2258 47.1107 22.218 47.1068 22.218 47.1029C21.9722 46.8649 21.5898 46.8454 21.3362 47.0756L10.5906 56.8106C10.3175 57.0603 10.3097 57.4895 10.5789 57.7431C10.6492 57.8094 10.7233 57.8758 10.7935 57.9421C11.0472 58.1762 11.4412 58.1567 11.6793 57.9109L12.8303 56.7208C13.1307 56.4126 13.5872 56.3111 13.9852 56.4672C14.4066 56.6311 14.8826 56.514 15.1792 56.1746L15.1753 56.1707Z" fill="url(#paint16_linear_2_600)"></path>
<path d="M20.0719 45.1325L6.48193 52.0348C6.17759 52.1908 6.07615 52.5849 6.27514 52.8619C6.34537 52.9595 6.4156 53.0531 6.48583 53.1507C6.64971 53.3731 6.95405 53.4433 7.19986 53.3107L7.75392 53.018C8.09338 52.8385 8.50307 52.8932 8.784 53.1546C9.08834 53.4355 9.54485 53.4706 9.89211 53.2443L20.665 46.1586C20.9264 45.987 20.9888 45.6436 20.825 45.3783C20.8211 45.3705 20.8133 45.3627 20.8094 45.3549C20.6533 45.0974 20.3333 44.9959 20.068 45.1325H20.0719Z" fill="url(#paint17_linear_2_600)"></path>
<path d="M19.2487 42.8811L3.55173 46.1781C3.064 46.2796 2.80258 46.8102 3.01328 47.2589C3.01328 47.2628 3.01718 47.2707 3.02108 47.2746C3.18106 47.6257 3.58294 47.7974 3.94971 47.6803L4.12139 47.6257C4.48426 47.5126 4.87444 47.6803 5.04222 48.0198L5.15147 48.2383C5.32315 48.5856 5.72504 48.7533 6.0918 48.6246L19.5647 44.0009C19.8535 43.9034 19.9978 43.5912 19.912 43.2986C19.912 43.2908 19.912 43.2869 19.9081 43.2791C19.8262 42.9943 19.5452 42.8109 19.2526 42.8733L19.2487 42.8811Z" fill="url(#paint18_linear_2_600)"></path>
<path d="M18.9561 40.3996L2.76755 39.4593C1.61262 39.3929 0.723009 40.4659 1.00784 41.5896L1.02735 41.6716C1.23024 42.4754 1.98329 43.0177 2.81438 42.9553L18.9678 41.7145C19.3112 41.6872 19.5765 41.3985 19.5687 41.0551C19.5687 41.0512 19.5687 41.0434 19.5687 41.0395C19.5609 40.7 19.2956 40.423 18.9561 40.4035V40.3996Z" fill="url(#paint19_linear_2_600)"></path>
<path d="M19.6155 38.5891C19.6701 38.3862 19.7247 38.1833 19.7872 37.9805C19.9627 37.4147 19.6389 36.8138 19.0731 36.6343L1.43308 30.9689C0.742458 30.7465 0.0323307 31.2459 0.00111629 31.9717C0.00111629 31.9795 0.00111629 31.9873 0.00111629 31.9951C-0.0222945 32.5023 0.324967 32.9549 0.812692 33.0876L17.9806 37.6995C18.2733 37.7776 18.4606 38.0624 18.4176 38.3589C18.3708 38.6867 18.601 38.9871 18.9249 39.0339H18.9483C19.2526 39.0808 19.5296 38.8857 19.6077 38.5891H19.6155Z" fill="url(#paint20_linear_2_600)"></path>
<path d="M21.2191 34.7576L21.2308 34.7381C21.5157 34.262 21.3752 33.6456 20.9109 33.3412L3.46592 21.8192C2.86504 21.4212 2.05347 21.7021 1.81546 22.385C1.80765 22.4084 1.79985 22.4357 1.78814 22.4591C1.61647 22.9546 1.82716 23.5048 2.27977 23.7701L19.0692 33.6651C19.2994 33.8016 19.4087 34.0787 19.3267 34.3362C19.2409 34.6015 19.3619 34.8902 19.6077 35.019L19.8496 35.1439C20.3373 35.4014 20.9382 35.2297 21.2191 34.7576Z" fill="url(#paint21_linear_2_600)"></path>
<path d="M23.5134 31.8117C23.5446 31.7805 23.5759 31.7493 23.611 31.7181C24.0285 31.3084 24.048 30.6451 23.6578 30.212L8.35883 13.1923C7.89452 12.6734 7.07513 12.7241 6.65764 13.2781C6.65374 13.2859 6.64594 13.2898 6.64203 13.2976C6.24795 13.8244 6.31818 14.5657 6.7864 15.0261L20.8329 28.8463C21.1294 29.139 21.2075 29.5877 21.0241 29.9623C20.8407 30.3368 20.9187 30.7894 21.2192 31.0821L21.98 31.8234C22.4053 32.237 23.092 32.2331 23.5095 31.8156L23.5134 31.8117Z" fill="url(#paint22_linear_2_600)"></path>
<path d="M23.6577 25.5532C23.4197 25.8654 23.4041 26.2907 23.6187 26.6184L25.1833 29.018C25.5111 29.5213 26.1744 29.6852 26.7011 29.3887L26.7245 29.377C27.263 29.0726 27.4659 28.3976 27.1811 27.8475L16.1468 6.45778C15.7761 5.73595 14.8475 5.50184 14.1841 5.97006C14.1529 5.99347 14.1217 6.01297 14.0905 6.03639C13.5325 6.43437 13.3687 7.19132 13.7198 7.77659L23.7202 24.5114C23.9152 24.8353 23.8918 25.245 23.6616 25.5454L23.6577 25.5532Z" fill="url(#paint23_linear_2_600)"></path>
<defs>
<linearGradient id="paint0_linear_2_600" x1="50.2642" y1="-5.35298" x2="-3.98261" y2="41.3867" gradientUnits="userSpaceOnUse">
<stop stop-color="#00A7E9"></stop>
<stop offset="0.51" stop-color="#8BCEAE"></stop>
<stop offset="1" stop-color="#C9DF8A"></stop>
</linearGradient>
<linearGradient id="paint1_linear_2_600" x1="52.9681" y1="-2.22373" x2="-1.30601" y2="44.5433" gradientUnits="userSpaceOnUse">
<stop stop-color="#00A7E9"></stop>
<stop offset="0.51" stop-color="#8BCEAE"></stop>
<stop offset="1" stop-color="#C9DF8A"></stop>
</linearGradient>
<linearGradient id="paint2_linear_2_600" x1="56.5461" y1="1.92778" x2="2.29537" y2="48.6753" gradientUnits="userSpaceOnUse">
<stop stop-color="#00A7E9"></stop>
<stop offset="0.51" stop-color="#8BCEAE"></stop>
<stop offset="1" stop-color="#C9DF8A"></stop>
</linearGradient>
<linearGradient id="paint3_linear_2_600" x1="60.9082" y1="7.00403" x2="6.66144" y2="53.7437" gradientUnits="userSpaceOnUse">
<stop stop-color="#00A7E9"></stop>
<stop offset="0.51" stop-color="#8BCEAE"></stop>
<stop offset="1" stop-color="#C9DF8A"></stop>
</linearGradient>
<linearGradient id="paint4_linear_2_600" x1="65.0598" y1="11.8189" x2="10.813" y2="58.5586" gradientUnits="userSpaceOnUse">
<stop stop-color="#00A7E9"></stop>
<stop offset="0.51" stop-color="#8BCEAE"></stop>
<stop offset="1" stop-color="#C9DF8A"></stop>
</linearGradient>
<linearGradient id="paint5_linear_2_600" x1="70.6199" y1="18.2724" x2="16.3731" y2="65.0121" gradientUnits="userSpaceOnUse">
<stop stop-color="#00A7E9"></stop>
<stop offset="0.51" stop-color="#8BCEAE"></stop>
<stop offset="1" stop-color="#C9DF8A"></stop>
</linearGradient>
<linearGradient id="paint6_linear_2_600" x1="75.224" y1="23.653" x2="21.0201" y2="70.3576" gradientUnits="userSpaceOnUse">
<stop stop-color="#00A7E9"></stop>
<stop offset="0.51" stop-color="#8BCEAE"></stop>
<stop offset="1" stop-color="#C9DF8A"></stop>
</linearGradient>
<linearGradient id="paint7_linear_2_600" x1="79.1375" y1="28.1596" x2="24.8907" y2="74.8993" gradientUnits="userSpaceOnUse">
<stop stop-color="#00A7E9"></stop>
<stop offset="0.51" stop-color="#8BCEAE"></stop>
<stop offset="1" stop-color="#C9DF8A"></stop>
</linearGradient>
<linearGradient id="paint8_linear_2_600" x1="72.9571" y1="20.9881" x2="18.7103" y2="67.7278" gradientUnits="userSpaceOnUse">
<stop stop-color="#00A7E9"></stop>
<stop offset="0.51" stop-color="#8BCEAE"></stop>
<stop offset="1" stop-color="#C9DF8A"></stop>
</linearGradient>
<linearGradient id="paint9_linear_2_600" x1="74.1588" y1="22.3811" x2="19.912" y2="69.1208" gradientUnits="userSpaceOnUse">
<stop stop-color="#00A7E9"></stop>
<stop offset="0.51" stop-color="#8BCEAE"></stop>
<stop offset="1" stop-color="#C9DF8A"></stop>
</linearGradient>
<linearGradient id="paint10_linear_2_600" x1="74.6231" y1="22.9234" x2="20.3763" y2="69.6631" gradientUnits="userSpaceOnUse">
<stop stop-color="#00A7E9"></stop>
<stop offset="0.51" stop-color="#8BCEAE"></stop>
<stop offset="1" stop-color="#C9DF8A"></stop>
</linearGradient>
<linearGradient id="paint11_linear_2_600" x1="74.4085" y1="22.6542" x2="20.1462" y2="69.4017" gradientUnits="userSpaceOnUse">
<stop stop-color="#00A7E9"></stop>
<stop offset="0.51" stop-color="#8BCEAE"></stop>
<stop offset="1" stop-color="#C9DF8A"></stop>
</linearGradient>
<linearGradient id="paint12_linear_2_600" x1="73.4525" y1="21.5617" x2="19.2058" y2="68.3014" gradientUnits="userSpaceOnUse">
<stop stop-color="#00A7E9"></stop>
<stop offset="0.51" stop-color="#8BCEAE"></stop>
<stop offset="1" stop-color="#C9DF8A"></stop>
</linearGradient>
<linearGradient id="paint13_linear_2_600" x1="71.3533" y1="20.1687" x2="17.6879" y2="66.405" gradientUnits="userSpaceOnUse">
<stop stop-color="#00A7E9"></stop>
<stop offset="0.51" stop-color="#8BCEAE"></stop>
<stop offset="1" stop-color="#C9DF8A"></stop>
</linearGradient>
<linearGradient id="paint14_linear_2_600" x1="69.7771" y1="17.2931" x2="15.5303" y2="64.0328" gradientUnits="userSpaceOnUse">
<stop stop-color="#00A7E9"></stop>
<stop offset="0.51" stop-color="#8BCEAE"></stop>
<stop offset="1" stop-color="#C9DF8A"></stop>
</linearGradient>
<linearGradient id="paint15_linear_2_600" x1="67.198" y1="14.3004" x2="12.9512" y2="61.0401" gradientUnits="userSpaceOnUse">
<stop stop-color="#00A7E9"></stop>
<stop offset="0.51" stop-color="#8BCEAE"></stop>
<stop offset="1" stop-color="#C9DF8A"></stop>
</linearGradient>
<linearGradient id="paint16_linear_2_600" x1="64.8023" y1="11.5224" x2="10.5555" y2="58.2621" gradientUnits="userSpaceOnUse">
<stop stop-color="#00A7E9"></stop>
<stop offset="0.51" stop-color="#8BCEAE"></stop>
<stop offset="1" stop-color="#C9DF8A"></stop>
</linearGradient>
<linearGradient id="paint17_linear_2_600" x1="61.552" y1="7.74928" x2="7.30521" y2="54.489" gradientUnits="userSpaceOnUse">
<stop stop-color="#00A7E9"></stop>
<stop offset="0.51" stop-color="#8BCEAE"></stop>
<stop offset="1" stop-color="#C9DF8A"></stop>
</linearGradient>
<linearGradient id="paint18_linear_2_600" x1="58.6998" y1="4.44056" x2="4.45304" y2="51.1803" gradientUnits="userSpaceOnUse">
<stop stop-color="#00A7E9"></stop>
<stop offset="0.51" stop-color="#8BCEAE"></stop>
<stop offset="1" stop-color="#C9DF8A"></stop>
</linearGradient>
<linearGradient id="paint19_linear_2_600" x1="56.0779" y1="1.39719" x2="1.83116" y2="48.1369" gradientUnits="userSpaceOnUse">
<stop stop-color="#00A7E9"></stop>
<stop offset="0.51" stop-color="#8BCEAE"></stop>
<stop offset="1" stop-color="#C9DF8A"></stop>
</linearGradient>
<linearGradient id="paint20_linear_2_600" x1="53.0422" y1="-2.12621" x2="-1.20458" y2="44.6135" gradientUnits="userSpaceOnUse">
<stop stop-color="#00A7E9"></stop>
<stop offset="0.51" stop-color="#8BCEAE"></stop>
<stop offset="1" stop-color="#C9DF8A"></stop>
</linearGradient>
<linearGradient id="paint21_linear_2_600" x1="50.4982" y1="-5.07985" x2="-3.74854" y2="41.6598" gradientUnits="userSpaceOnUse">
<stop stop-color="#00A7E9"></stop>
<stop offset="0.51" stop-color="#8BCEAE"></stop>
<stop offset="1" stop-color="#C9DF8A"></stop>
</linearGradient>
<linearGradient id="paint22_linear_2_600" x1="49.0624" y1="-6.74592" x2="-5.18434" y2="39.9938" gradientUnits="userSpaceOnUse">
<stop stop-color="#00A7E9"></stop>
<stop offset="0.51" stop-color="#8BCEAE"></stop>
<stop offset="1" stop-color="#C9DF8A"></stop>
</linearGradient>
<linearGradient id="paint23_linear_2_600" x1="48.9531" y1="-6.87078" x2="-5.29367" y2="39.8689" gradientUnits="userSpaceOnUse">
<stop stop-color="#00A7E9"></stop>
<stop offset="0.51" stop-color="#8BCEAE"></stop>
<stop offset="1" stop-color="#C9DF8A"></stop>
</linearGradient>
<clipPath id="SvgjsClipPath1042"><rect width="1000" height="1000" x="0" y="0" rx="350" ry="350"></rect></clipPath></defs>
</svg></svg></g></g></svg>